PathFileType	4	(X/Y/Z)	Patient4_TMGait_0pt7_02_right_35.trc.trc
DataRate	CameraRate	NumFrames	NumMarkers	Units	OrigDataRate	OrigDataStartFrame	OrigNumFrames
88.050314465409	88.050314465409	6	33	mm	88.050314465409	18	       141
Frame#	Time	Sacral			L.Shoulder			Chest			R.Shoulder			Neck			R.ASIS			L.ASIS			R.Thigh.Superior			R.Thigh.Lateral			R.Thigh.Inferior			R.Patella			L.Thigh.Superior			L.Thigh.Lateral			L.Thigh.Inferior			L.Patella			L.Shank.Superior			L.Shank.Lateral			L.Shank.Inferior			R.Shank.Superior			R.Shank.Lateral			R.Shank.Inferior			R.Heel			R.Midfoot.Superior			R.Midfoot.Lateral			R.Toe			L.Heel			L.Midfoot.Lateral			L.Midfoot.Superior			L.Toe			L.Elbow			L.Wrist			R.Elbow			R.Wrist			
		X1	Y1	Z1	X2	Y2	Z2	X3	Y3	Z3	X4	Y4	Z4	X5	Y5	Z5	X6	Y6	Z6	X7	Y7	Z7	X8	Y8	Z8	X9	Y9	Z9	X10	Y10	Z10	X11	Y11	Z11	X12	Y12	Z12	X13	Y13	Z13	X14	Y14	Z14	X15	Y15	Z15	X16	Y16	Z16	X17	Y17	Z17	X18	Y18	Z18	X19	Y19	Z19	X20	Y20	Z20	X21	Y21	Z21	X22	Y22	Z22	X23	Y23	Z23	X24	Y24	Z24	X25	Y25	Z25	X26	Y26	Z26	X27	Y27	Z27	X28	Y28	Z28	X29	Y29	Z29	X30	Y30	Z30	X31	Y31	Z31	X32	Y32	Z32	X33	Y33	Z33	

18	39.693071428571	820.932720450928	1013.772845031148	425.397882489919	1053.521275340644	1426.769268007012	255.485551497527	1136.581435258070	1343.039951604707	422.359869987854	1051.225724147917	1428.816680694087	588.800504820123	1051.424726312553	1484.743013421275	408.064941186480	1034.336296810797	935.983963045997	560.025627799317	1078.325833746454	984.885033030796	295.627468475118	1111.462533718410	777.012500373171	531.699122935972	1078.078921157801	654.688003217411	610.007604010223	1168.495150867308	620.059659144910	530.248128527296	1206.927447805748	533.698544047421	551.571459737059	1041.499298472780	728.056845840634	315.398292123867	929.164831582797	635.578465193508	245.564989409741	984.964989861052	540.268220067004	312.506803933161	969.914360138567	474.524924251606	320.960475281849	936.048031548960	409.289222567716	310.293054104345	834.908652341085	307.492466372617	254.575406873527	865.876163204598	190.787969521141	328.571025671335	1183.668930662986	444.448269900589	563.542558480603	1123.066906605879	337.058385587957	631.371629060119	1184.642291682982	244.471531545351	582.052777688845	1077.945217918569	64.475793356109	560.057682834283	1245.678376278486	128.418022132998	599.328228522886	1162.068190803408	57.998872586193	632.574241626890	1366.934072525027	82.167711262089	624.707441950747	720.827442487751	42.205782129043	362.772049164536	798.600264470530	36.767463306994	286.891948421785	881.605745183732	96.114619271045	317.060412259811	1010.235319031126	39.511454098099	295.282464253032	1069.636837649430	1111.243694179644	83.384959935822	1319.300105839458	1099.672507823418	129.724142039520	926.596929107882	1107.047540800837	710.367681634244	922.744040824952	844.634422705655	712.278599224232	
19	39.704428571429	822.045889954650	1011.694180758210	428.191954004416	1053.060967394971	1425.178551061496	257.666682148895	1136.851535251967	1341.452527619680	424.167512844937	1051.947174080686	1427.136856171147	590.808563473253	1051.549986092397	1482.950023166078	410.053793931576	1036.175008877168	933.513831227848	561.508109967491	1068.819903378644	974.505386725524	294.284579574591	1111.015614006496	771.966563082231	533.225799802941	1075.090387246517	650.018928524691	611.388125379365	1164.778743679689	614.370459224507	531.229896132804	1202.272541868673	529.577579427331	551.568414995766	1039.394681368341	726.169810320639	316.027707340575	925.439458863183	635.094893068481	246.351000936650	980.181504198169	538.970044624445	312.779196001037	964.683130778755	473.330820102338	321.035419484679	930.172206625041	408.522934445143	310.531195976563	828.079808258394	307.563019372100	254.883421694835	858.451235803095	190.484740947514	328.606850955826	1181.580418576999	440.464132223137	563.999324120714	1124.413906443897	331.173454227669	632.025052174444	1188.590129703651	240.488774875856	582.157817014494	1087.151516662148	57.357054422777	560.540717845156	1253.304328721112	126.050970804246	598.793439135074	1171.813790702437	53.550849119381	632.767239902900	1376.163999564419	83.481589640070	623.982115967281	712.787569295558	42.248098463346	362.759911306350	790.580605798269	36.771259009448	286.888646392634	873.575165441667	96.082288414790	317.048309601790	1002.209250176771	39.456762763396	295.248460406740	1071.785803368318	1111.163526786579	83.933024561306	1320.719678161097	1105.916563436517	133.663486542311	919.389524425326	1109.454586089388	712.687947928240	910.566766166686	847.111402710822	713.921552755601	
20	39.715785714286	823.323505284366	1009.407929292488	431.280435814681	1052.410654575186	1423.472199158643	259.984419902458	1137.139560070518	1339.850570762551	426.065958553465	1052.698107782023	1425.368213023963	592.993893434823	1051.613928930769	1481.066562567734	412.219241015248	1038.248741841158	930.906149416430	563.083459074777	1046.147104404972	952.064981716844	289.231235337333	1111.061984180618	766.994250369367	534.901580556899	1072.526273512832	645.408101784500	612.695724681030	1161.624554457260	608.935864460806	532.263292273002	1197.986911448023	525.336615677102	551.633012066440	1037.710194017653	724.238748573079	316.791849349495	922.221931695811	634.481078224784	247.362105646639	976.030592054236	537.580876169040	313.260196685765	960.145283556237	471.929669902084	321.320628892741	924.814345327782	407.555512474554	310.960900481086	821.620586258088	307.631926423065	255.339124250145	851.187527509198	190.099763828796	328.700166689417	1179.332435768016	436.249988053142	564.434242379035	1124.566275089545	325.558820975690	632.233275142089	1190.739963542263	236.423186944275	581.964496771864	1093.074741137189	51.602013022201	560.362041950945	1258.080175158903	123.205765344396	597.865505115155	1177.997891463087	49.611312812466	632.425374319868	1381.927937584499	83.037003593570	622.958601986722	704.740799697952	42.331597747542	362.724446671512	782.570144437583	36.775057559717	286.872572788942	865.565223253337	96.039369396785	317.040723103683	994.208299264803	39.400123929768	295.203245103902	1073.363062799536	1110.764985610789	84.798379562857	1321.474261317845	1111.205744422119	137.570684663583	912.825004911975	1111.672855378946	714.983724975396	899.313082345433	849.409737823853	715.592587629458	
21	39.727142857143	824.721795780230	1007.008244947537	434.621268496392	1051.626310300185	1421.687631699310	262.429984420787	1137.467440266862	1338.283419788845	428.069384939630	1053.482946255542	1423.576190930696	595.359979373126	1051.650343707660	1479.155332316135	414.561672083869	1040.483525769676	928.248992490298	564.774286582550	1007.962343693735	915.537454996079	279.797707638725	1111.614870044671	762.291100272738	536.733010009329	1070.464783298466	641.018795812766	613.901380523414	1159.177953608871	603.974850121531	533.377492084576	1194.249877907581	521.150611695590	551.801115263437	1036.499532361874	722.305511877828	317.727810173639	919.588367867152	633.745937994641	248.622416741239	972.617358019406	536.112967999709	313.972858796478	956.394526068448	470.315526422541	321.837209401446	920.069893586721	406.388581568017	311.590004958553	815.608414078815	307.729269121912	255.951972062755	844.133345343508	189.656236132308	328.847631533656	1177.086299594980	431.969832037337	564.849628062159	1123.701510196471	320.331818327668	632.081717433196	1191.232782903432	232.341173373255	581.525827266058	1095.747695606733	47.186938176219	559.666615560137	1260.143409663089	119.918966038030	596.631418746881	1180.723119238218	46.182669624085	631.684466406111	1384.436319219996	80.846719929696	621.698163004993	696.696100701934	42.525724434765	362.653612589381	774.576090646470	36.801361719582	286.838295177038	857.608163614687	95.991568039091	317.022385526504	986.237898390959	39.340646509249	295.146221347545	1074.327464105797	1110.026921709397	86.015041472729	1321.599069353224	1115.477766642415	141.406312982528	907.049706741780	1113.621558680605	717.250687080460	889.076134130462	851.467698832373	717.245586469968	
22	39.738500000000	826.186758051435	1004.613524861580	438.158132218637	1050.785988514015	1419.876920081485	264.989686694486	1137.861759139830	1336.803534087003	430.190426559459	1054.317279230338	1421.838620786141	597.901972355630	1051.708414694667	1477.292228496872	417.073116354992	1042.796398332144	925.651419540094	566.607467375784	953.971714504357	864.767015318937	265.905441958878	1112.657274575604	758.048908098085	538.727127249578	1068.956448044207	637.018641203510	615.003192231493	1157.540076002124	599.679546693995	534.611598415035	1191.205859391745	517.196286202291	552.107735071710	1035.798177180917	720.427393700829	318.867394883996	917.604564413566	632.906195188185	250.147347927556	970.050654619931	534.590668019493	314.925474265824	953.531209065856	468.494797459520	322.584686750095	916.038830281289	405.037407857207	312.412514844234	810.125351033118	307.900431373501	256.724577731100	837.349089336536	189.194751637838	329.039906501344	1174.992981066089	427.809019770135	565.258121963750	1122.069855560058	315.628732624724	631.709671677319	1190.288344067272	228.353543663256	580.919328215693	1095.398031943393	44.035299195236	558.645218260889	1259.753585534688	116.320767743159	595.211765903428	1180.289065361942	43.285878093057	630.712671201309	1384.044912355913	77.135572953728	620.285687752302	688.671356291067	42.931440766417	362.536525048934	766.609219938181	36.890540423713	286.781008259246	849.749159533207	95.950296535657	316.973383137072	978.301541964775	39.275749564146	295.079133717962	1074.638891381552	1108.942681867766	87.618699457335	1321.130732019891	1118.670844959975	145.135827023976	902.201280464673	1115.233776149728	719.491239679508	879.962336670765	853.236619135172	718.843673284430	
23	39.749857142857	827.659160006743	1002.356334968316	441.825784533138	1049.983412468310	1418.106423211719	267.645067603843	1138.349440404647	1335.464153638855	432.437918632641	1055.223704233924	1420.241947880130	600.604830338877	1051.846753591132	1475.561908240405	419.735532039911	1045.101896409695	923.235863264984	568.612651242052	886.885939118336	802.316080161879	248.345199932050	1114.142747865443	754.444804818805	540.889962387669	1068.024800376130	633.570940133524	616.032196505232	1156.751392819634	596.198443056777	536.010152683566	1188.943783584083	513.639617418829	552.592806449372	1035.620469631172	718.676684904314	320.234471448441	916.326789438838	631.985424326062	251.939979331663	968.443285821081	533.050801440688	316.108851144679	951.664919851289	466.487988450910	323.536959473658	912.825615533266	403.531698975082	313.407079752085	805.259393146117	308.206853140439	257.651608067622	830.909932961814	188.775198359015	329.261900331390	1173.172452719161	423.956261544427	565.689231257859	1119.953554598466	311.587599856630	631.293116635711	1188.174135999986	224.600765770202	580.241099674474	1092.418372243692	42.016125375922	557.501099960757	1257.257410980467	112.614098978126	593.748594152337	1177.153070917973	40.944124323471	629.683174015671	1381.211755420428	72.311634845254	618.829074056119	680.697314707795	43.684502367684	362.365075209674	758.685992604686	37.106605416148	286.697392220040	842.047651725064	95.934762231793	316.871204340801	970.400181192083	39.199481852140	295.006579448307	1074.259988549948	1107.524831374749	89.646240014963	1320.105333301601	1120.723763095437	148.730812876922	898.399855716971	1116.464110444168	721.711704108943	872.084455024465	854.682759158580	720.369704360926	
